# xmcd
#
# Track frame offsets:
#	150
#	12020
#	29118
#	45474
#	56297
#	68972
#	87503
#	98811
#	106140
#	120560
#	138161
#	152407
#
# Disc length: 2253 seconds
#
# Revision: 0
# Processed by: cddbd v1.4PL0 Copyright (c) Steve Scherf et al.
# Submitted via: dBpowerAMP V4.0
#
DISCID=9008cb0c
DTITLE=Enya - A Day Without Rain
DYEAR=1900
DGENRE=folk
TTITLE0=A Day Without Rain
TTITLE1=Wild Child
TTITLE2=Only Time
TTITLE3=Tempus Vernum
TTITLE4=Deora Ar Mo Croi
TTITLE5=Flora's Secret
TTITLE6=Fallen Embers
TTITLE7=Silver Inches
TTITLE8=Pilgrim
TTITLE9=One by One
TTITLE10=The First of Autumn
TTITLE11=Lazy Days
EXTD=the lord of the ring
EXTT0=
EXTT1=
EXTT2=
EXTT3=
EXTT4=
EXTT5=
EXTT6=
EXTT7=
EXTT8=
EXTT9=
EXTT10=
EXTT11=
PLAYORDER=
